<svg width="952" height="142" viewBox="0 0 952 142" fill="none" xmlns="http://www.w3.org/2000/svg">
<path d="M289.709 71.0422L199 141.542L293.374 142L385 71.0422L294.291 1H199L289.709 71.0422Z" fill="#282F96"/>
<path d="M90.7094 71.0422L0 141.542L94.3744 142L186 71.0422L95.2906 1H0L90.7094 71.0422Z" fill="#282F96"/>
<path d="M478.709 71.0422L388 141.542L482.374 142L574 71.0422L483.291 1H388L478.709 71.0422Z" fill="#282F96"/>
<path d="M667.709 70.0422L577 140.542L671.374 141L763 70.0422L672.291 0H577L667.709 70.0422Z" fill="#282F96"/>
<path d="M856.709 71.0422L766 141.542L860.374 142L952 71.0422L861.291 1H766L856.709 71.0422Z" fill="#282F96"/>
</svg>
