<svg width="1150" height="1150" viewBox="0 0 1150 1150" fill="none" xmlns="http://www.w3.org/2000/svg">
<path d="M897.708 845.612C922.019 818.452 933.961 785.656 932.285 749.385C929.385 687.029 896.77 644.484 840.191 618.817C871.435 616.94 899.318 607.19 923.742 588.258C948.248 569.266 964.702 544.762 973.128 514.937C981.567 485.033 980.232 455.375 969.152 426.53C954.487 388.368 928.017 360.7 890.023 345.68C838.481 325.308 790.491 334.278 745.792 366.95C764.907 327.471 768.328 287.434 752.135 246.74C735.852 205.803 706.347 178.086 664.58 164.212C630.028 152.741 595.15 153.77 562.484 169.876C499.355 200.99 474.019 253.624 480.194 322.911C455.487 285.829 422.036 262.769 378.217 256.69C334.15 250.578 295.085 263.058 262.313 293.123C236.903 316.44 221.312 345.806 218.457 380.169C212.522 451.706 245.776 500.54 309.652 530.797C280.533 532.425 254.208 540.937 230.668 557.746C207.231 574.483 190.381 596.245 180.322 623.138C170.2 650.216 168.317 678.045 175.33 706.059C185.044 744.871 206.898 775.514 241.953 794.919C298.039 825.972 352.168 819.56 404.055 782.396C383.246 825.58 380.645 869.073 401.694 911.974C422.651 954.688 457.111 981.585 504.379 990.109C539.727 996.481 573.595 990.598 603.724 970.783C655.369 936.816 675.708 887.834 669.48 826.447C695.871 865.769 731.648 889.371 778.951 893.45C826.447 897.545 866.191 880.817 897.708 845.612Z" fill="#F59C07"/>
</svg>
