<svg width="191" height="185" viewBox="0 0 191 185" fill="none" xmlns="http://www.w3.org/2000/svg">
<g clip-path="url(#clip0)">
<path d="M190.625 79.4092C190.625 59.1365 174.211 42.707 153.959 42.707C143.747 42.707 134.51 46.8924 127.856 53.6432C130.278 48.7436 131.645 43.2302 131.645 37.3949C131.645 17.1121 115.232 0.682617 94.9789 0.682617C74.726 0.682617 58.3126 17.1121 58.3126 37.3848C58.3126 42.6165 59.4082 47.5866 61.3883 52.0938C54.8953 46.2585 46.3117 42.707 36.9039 42.707C16.6409 42.697 0.227539 59.1365 0.227539 79.4092C0.227539 99.6819 16.6409 116.111 36.8938 116.111C38.8035 116.111 40.673 115.96 42.5023 115.689C30.7727 121.816 22.762 134.09 22.762 148.246C22.762 168.519 39.1754 184.948 59.4283 184.948C77.5102 184.948 92.5265 171.839 95.5317 154.604C98.537 171.839 113.553 184.948 131.635 184.948C151.888 184.948 168.301 168.519 168.301 148.246C168.301 134.12 160.321 121.866 148.642 115.729C150.38 115.981 152.149 116.121 153.949 116.121C174.211 116.111 190.625 99.6719 190.625 79.4092Z" fill="black"/>
</g>
<defs>
<clipPath id="clip0">
<rect width="190.397" height="184.255" fill="white" transform="translate(0.227539 0.682617)"/>
</clipPath>
</defs>
</svg>
