<svg width="389" height="387" viewBox="0 0 389 387" fill="none" xmlns="http://www.w3.org/2000/svg">
<path d="M318.016 261.603C335.827 237.828 331.011 204.14 307.259 186.347C295.283 177.375 280.773 174.168 267.039 176.24C274.184 172.622 280.631 167.357 285.758 160.513C303.577 136.726 298.762 103.038 275.01 85.2443C251.258 67.451 217.574 72.2991 199.763 96.0745C195.167 102.21 192.086 109.001 190.448 116.027C187.96 103.479 181.013 91.7728 169.98 83.5075C146.225 65.6936 112.532 70.5535 94.7217 94.329C76.911 118.104 81.7261 151.793 105.478 169.586C107.718 171.264 110.043 172.729 112.427 174.018C93.2879 170.898 73.1094 178.256 60.6729 194.857C42.8622 218.633 47.6773 252.321 71.4295 270.114C92.6355 286 121.764 283.818 140.429 266.246C128.813 289.099 134.906 317.666 156.112 333.552C179.864 351.345 213.548 346.497 231.359 322.721C243.769 306.155 245.175 284.772 236.87 267.314C238.688 269.137 240.639 270.856 242.749 272.437C266.522 290.227 300.214 285.367 318.016 261.603Z" stroke="black" stroke-width="2" stroke-linejoin="bevel"/>
</svg>
