<svg width="191" height="185" viewBox="0 0 191 185" fill="none" xmlns="http://www.w3.org/2000/svg">
<g clip-path="url(#clip0)">
<path d="M190.397 78.7266C190.397 58.4539 173.984 42.0244 153.731 42.0244C143.519 42.0244 134.282 46.2097 127.628 52.9606C130.051 48.0609 131.418 42.5476 131.418 36.7122C131.418 16.4295 115.004 0 94.7514 0C74.4985 0 58.0851 16.4295 58.0851 36.7022C58.0851 41.9339 59.1807 46.9039 61.1607 51.4112C54.6677 45.5759 46.0841 42.0244 36.6763 42.0244C16.4134 42.0143 0 58.4539 0 78.7266C0 98.9993 16.4134 115.429 36.6663 115.429C38.576 115.429 40.4455 115.278 42.2748 115.006C30.5452 121.133 22.5345 133.408 22.5345 147.563C22.5345 167.836 38.9479 184.265 59.2008 184.265C77.2826 184.265 92.2989 171.156 95.3042 153.922C98.3094 171.156 113.326 184.265 131.408 184.265C151.66 184.265 168.074 167.836 168.074 147.563C168.074 133.438 160.093 121.184 148.414 115.046C150.153 115.298 151.922 115.439 153.721 115.439C173.984 115.429 190.397 98.9893 190.397 78.7266Z" fill="#A3A3A3"/>
</g>
<defs>
<clipPath id="clip0">
<rect width="190.397" height="184.255" fill="white"/>
</clipPath>
</defs>
</svg>
