<svg width="387" height="387" viewBox="0 0 387 387" fill="none" xmlns="http://www.w3.org/2000/svg">
<path d="M312.593 251.13L312.593 251.13C312.106 240.659 309.12 231.803 303.844 224.48C299.193 218.024 292.795 212.802 284.852 208.712C293.908 207.603 302.102 204.382 309.385 198.737C317.651 192.331 323.208 184.054 326.049 173.997L326.049 173.996C328.896 163.911 328.445 153.892 324.707 144.161L324.707 144.161C319.767 131.305 310.824 121.949 298 116.88L297.633 117.81L298 116.88C281.759 110.46 266.542 112.701 252.374 121.967C257.454 109.767 258.023 97.352 253.01 84.7547C247.521 70.9553 237.548 61.5876 223.472 56.9117L223.471 56.9117C211.835 53.0487 200.038 53.3857 188.986 58.8351C178.399 64.0532 170.921 71.1086 166.364 79.8173C162.283 87.6166 160.577 96.6765 161.011 106.814C152.932 96.054 142.291 89.3076 128.692 87.4209L128.566 88.3303L128.692 87.4209C113.834 85.36 100.631 89.58 89.5888 99.7106L90.2204 100.399L89.5887 99.7106C81.027 107.567 75.746 117.495 74.7803 129.121L75.7324 129.2L74.7803 129.121C73.785 141.118 76.0734 151.281 81.3434 159.727C86.072 167.306 93.1603 173.438 102.29 178.273C93.8948 179.258 86.2012 182.075 79.2297 187.054C71.3278 192.696 65.6361 200.046 62.2421 209.12L62.2421 209.12C58.83 218.247 58.1915 227.647 60.5594 237.106C63.8292 250.171 71.2092 260.537 83.0546 267.094C92.4701 272.307 101.77 274.399 110.922 273.597C119.036 272.887 126.975 269.907 134.726 264.901C129.113 278.341 128.835 291.922 135.412 305.329C142.471 319.716 154.117 328.811 170.055 331.685L170.233 330.701L170.055 331.685C181.964 333.832 193.417 331.85 203.602 325.152C212.272 319.45 218.354 312.458 221.997 304.279C225.205 297.074 226.499 288.997 226.047 280.145C234.691 291.591 246.116 298.495 260.854 299.765C276.872 301.146 290.305 295.486 300.917 283.633C309.119 274.469 313.159 263.38 312.593 251.13Z" stroke="black" stroke-width="2" stroke-miterlimit="10"/>
</svg>
